<mxfile host="app.diagrams.net" modified="2023-07-20T04:15:41.789Z" agent="Mozilla/5.0 (Windows NT 10.0; Win64; x64) AppleWebKit/537.36 (KHTML, like Gecko) Chrome/115.0.0.0 Safari/537.36" etag="vtKgYHtMtLeeNTMjI_lI" version="21.6.3" type="device">
  <diagram name="페이지-1" id="9Ugc8Tu3NFu7fM_Yn_jP">
    <mxGraphModel dx="989" dy="545" grid="1" gridSize="10" guides="1" tooltips="1" connect="1" arrows="1" fold="1" page="1" pageScale="1" pageWidth="827" pageHeight="1169" math="0" shadow="0">
      <root>
        <mxCell id="0" />
        <mxCell id="1" parent="0" />
        <mxCell id="U962CbWCgU4uKYsuo5xB-1" value="8" style="rounded=0;whiteSpace=wrap;html=1;fillColor=#dae8fc;strokeColor=#6c8ebf;" vertex="1" parent="1">
          <mxGeometry x="40" y="80" width="40" height="40" as="geometry" />
        </mxCell>
        <mxCell id="U962CbWCgU4uKYsuo5xB-2" value="16" style="rounded=0;whiteSpace=wrap;html=1;fillColor=#dae8fc;strokeColor=#6c8ebf;" vertex="1" parent="1">
          <mxGeometry x="80" y="80" width="40" height="40" as="geometry" />
        </mxCell>
        <mxCell id="U962CbWCgU4uKYsuo5xB-3" value="88" style="rounded=0;whiteSpace=wrap;html=1;" vertex="1" parent="1">
          <mxGeometry x="120" y="80" width="40" height="40" as="geometry" />
        </mxCell>
        <mxCell id="U962CbWCgU4uKYsuo5xB-4" value="18" style="rounded=0;whiteSpace=wrap;html=1;" vertex="1" parent="1">
          <mxGeometry x="160" y="80" width="40" height="40" as="geometry" />
        </mxCell>
        <mxCell id="U962CbWCgU4uKYsuo5xB-5" value="343" style="rounded=0;whiteSpace=wrap;html=1;" vertex="1" parent="1">
          <mxGeometry x="200" y="80" width="40" height="40" as="geometry" />
        </mxCell>
        <mxCell id="U962CbWCgU4uKYsuo5xB-6" value="0" style="rounded=0;whiteSpace=wrap;html=1;" vertex="1" parent="1">
          <mxGeometry x="240" y="80" width="40" height="40" as="geometry" />
        </mxCell>
        <mxCell id="U962CbWCgU4uKYsuo5xB-7" value="100" style="rounded=0;whiteSpace=wrap;html=1;" vertex="1" parent="1">
          <mxGeometry x="280" y="80" width="40" height="40" as="geometry" />
        </mxCell>
        <mxCell id="U962CbWCgU4uKYsuo5xB-9" value="" style="endArrow=classic;startArrow=classic;html=1;rounded=0;entryX=0.5;entryY=1;entryDx=0;entryDy=0;exitX=0.5;exitY=1;exitDx=0;exitDy=0;" edge="1" parent="1" source="U962CbWCgU4uKYsuo5xB-1" target="U962CbWCgU4uKYsuo5xB-2">
          <mxGeometry width="50" height="50" relative="1" as="geometry">
            <mxPoint x="40" y="150" as="sourcePoint" />
            <mxPoint x="110" y="140" as="targetPoint" />
            <Array as="points">
              <mxPoint x="80" y="150" />
            </Array>
          </mxGeometry>
        </mxCell>
        <mxCell id="U962CbWCgU4uKYsuo5xB-10" value="8" style="rounded=0;whiteSpace=wrap;html=1;" vertex="1" parent="1">
          <mxGeometry x="40" y="160" width="40" height="40" as="geometry" />
        </mxCell>
        <mxCell id="U962CbWCgU4uKYsuo5xB-11" value="16" style="rounded=0;whiteSpace=wrap;html=1;fillColor=#dae8fc;strokeColor=#6c8ebf;" vertex="1" parent="1">
          <mxGeometry x="80" y="160" width="40" height="40" as="geometry" />
        </mxCell>
        <mxCell id="U962CbWCgU4uKYsuo5xB-12" value="88" style="rounded=0;whiteSpace=wrap;html=1;fillColor=#dae8fc;strokeColor=#6c8ebf;" vertex="1" parent="1">
          <mxGeometry x="120" y="160" width="40" height="40" as="geometry" />
        </mxCell>
        <mxCell id="U962CbWCgU4uKYsuo5xB-13" value="18" style="rounded=0;whiteSpace=wrap;html=1;" vertex="1" parent="1">
          <mxGeometry x="160" y="160" width="40" height="40" as="geometry" />
        </mxCell>
        <mxCell id="U962CbWCgU4uKYsuo5xB-14" value="343" style="rounded=0;whiteSpace=wrap;html=1;" vertex="1" parent="1">
          <mxGeometry x="200" y="160" width="40" height="40" as="geometry" />
        </mxCell>
        <mxCell id="U962CbWCgU4uKYsuo5xB-15" value="0" style="rounded=0;whiteSpace=wrap;html=1;" vertex="1" parent="1">
          <mxGeometry x="240" y="160" width="40" height="40" as="geometry" />
        </mxCell>
        <mxCell id="U962CbWCgU4uKYsuo5xB-16" value="100" style="rounded=0;whiteSpace=wrap;html=1;" vertex="1" parent="1">
          <mxGeometry x="280" y="160" width="40" height="40" as="geometry" />
        </mxCell>
        <mxCell id="U962CbWCgU4uKYsuo5xB-17" value="" style="endArrow=classic;startArrow=classic;html=1;rounded=0;entryX=0.5;entryY=1;entryDx=0;entryDy=0;exitX=0.5;exitY=1;exitDx=0;exitDy=0;" edge="1" parent="1">
          <mxGeometry width="50" height="50" relative="1" as="geometry">
            <mxPoint x="100" y="200" as="sourcePoint" />
            <mxPoint x="140" y="200" as="targetPoint" />
            <Array as="points">
              <mxPoint x="120" y="230" />
            </Array>
          </mxGeometry>
        </mxCell>
        <mxCell id="U962CbWCgU4uKYsuo5xB-18" value="8" style="rounded=0;whiteSpace=wrap;html=1;" vertex="1" parent="1">
          <mxGeometry x="40" y="240" width="40" height="40" as="geometry" />
        </mxCell>
        <mxCell id="U962CbWCgU4uKYsuo5xB-19" value="16" style="rounded=0;whiteSpace=wrap;html=1;" vertex="1" parent="1">
          <mxGeometry x="80" y="240" width="40" height="40" as="geometry" />
        </mxCell>
        <mxCell id="U962CbWCgU4uKYsuo5xB-20" value="88" style="rounded=0;whiteSpace=wrap;html=1;fillColor=#dae8fc;strokeColor=#6c8ebf;" vertex="1" parent="1">
          <mxGeometry x="120" y="240" width="40" height="40" as="geometry" />
        </mxCell>
        <mxCell id="U962CbWCgU4uKYsuo5xB-21" value="18" style="rounded=0;whiteSpace=wrap;html=1;fillColor=#dae8fc;strokeColor=#6c8ebf;" vertex="1" parent="1">
          <mxGeometry x="160" y="240" width="40" height="40" as="geometry" />
        </mxCell>
        <mxCell id="U962CbWCgU4uKYsuo5xB-22" value="343" style="rounded=0;whiteSpace=wrap;html=1;" vertex="1" parent="1">
          <mxGeometry x="200" y="240" width="40" height="40" as="geometry" />
        </mxCell>
        <mxCell id="U962CbWCgU4uKYsuo5xB-23" value="0" style="rounded=0;whiteSpace=wrap;html=1;" vertex="1" parent="1">
          <mxGeometry x="240" y="240" width="40" height="40" as="geometry" />
        </mxCell>
        <mxCell id="U962CbWCgU4uKYsuo5xB-24" value="100" style="rounded=0;whiteSpace=wrap;html=1;" vertex="1" parent="1">
          <mxGeometry x="280" y="240" width="40" height="40" as="geometry" />
        </mxCell>
        <mxCell id="U962CbWCgU4uKYsuo5xB-25" value="" style="endArrow=classic;startArrow=classic;html=1;rounded=0;entryX=0.5;entryY=1;entryDx=0;entryDy=0;exitX=0.5;exitY=1;exitDx=0;exitDy=0;" edge="1" parent="1">
          <mxGeometry width="50" height="50" relative="1" as="geometry">
            <mxPoint x="140" y="280" as="sourcePoint" />
            <mxPoint x="180" y="280" as="targetPoint" />
            <Array as="points">
              <mxPoint x="160" y="310" />
            </Array>
          </mxGeometry>
        </mxCell>
        <mxCell id="U962CbWCgU4uKYsuo5xB-26" value="8" style="rounded=0;whiteSpace=wrap;html=1;" vertex="1" parent="1">
          <mxGeometry x="40" y="320" width="40" height="40" as="geometry" />
        </mxCell>
        <mxCell id="U962CbWCgU4uKYsuo5xB-27" value="16" style="rounded=0;whiteSpace=wrap;html=1;" vertex="1" parent="1">
          <mxGeometry x="80" y="320" width="40" height="40" as="geometry" />
        </mxCell>
        <mxCell id="U962CbWCgU4uKYsuo5xB-28" value="18" style="rounded=0;whiteSpace=wrap;html=1;" vertex="1" parent="1">
          <mxGeometry x="120" y="320" width="40" height="40" as="geometry" />
        </mxCell>
        <mxCell id="U962CbWCgU4uKYsuo5xB-29" value="88" style="rounded=0;whiteSpace=wrap;html=1;fillColor=#dae8fc;strokeColor=#6c8ebf;" vertex="1" parent="1">
          <mxGeometry x="160" y="320" width="40" height="40" as="geometry" />
        </mxCell>
        <mxCell id="U962CbWCgU4uKYsuo5xB-30" value="343" style="rounded=0;whiteSpace=wrap;html=1;fillColor=#dae8fc;strokeColor=#6c8ebf;" vertex="1" parent="1">
          <mxGeometry x="200" y="320" width="40" height="40" as="geometry" />
        </mxCell>
        <mxCell id="U962CbWCgU4uKYsuo5xB-31" value="0" style="rounded=0;whiteSpace=wrap;html=1;" vertex="1" parent="1">
          <mxGeometry x="240" y="320" width="40" height="40" as="geometry" />
        </mxCell>
        <mxCell id="U962CbWCgU4uKYsuo5xB-32" value="100" style="rounded=0;whiteSpace=wrap;html=1;" vertex="1" parent="1">
          <mxGeometry x="280" y="320" width="40" height="40" as="geometry" />
        </mxCell>
        <mxCell id="U962CbWCgU4uKYsuo5xB-33" value="" style="endArrow=classic;startArrow=classic;html=1;rounded=0;entryX=0.5;entryY=1;entryDx=0;entryDy=0;exitX=0.5;exitY=1;exitDx=0;exitDy=0;" edge="1" parent="1">
          <mxGeometry width="50" height="50" relative="1" as="geometry">
            <mxPoint x="180" y="360" as="sourcePoint" />
            <mxPoint x="220" y="360" as="targetPoint" />
            <Array as="points">
              <mxPoint x="200" y="390" />
            </Array>
          </mxGeometry>
        </mxCell>
        <mxCell id="U962CbWCgU4uKYsuo5xB-34" value="8" style="rounded=0;whiteSpace=wrap;html=1;" vertex="1" parent="1">
          <mxGeometry x="40" y="400" width="40" height="40" as="geometry" />
        </mxCell>
        <mxCell id="U962CbWCgU4uKYsuo5xB-35" value="16" style="rounded=0;whiteSpace=wrap;html=1;" vertex="1" parent="1">
          <mxGeometry x="80" y="400" width="40" height="40" as="geometry" />
        </mxCell>
        <mxCell id="U962CbWCgU4uKYsuo5xB-36" value="18" style="rounded=0;whiteSpace=wrap;html=1;" vertex="1" parent="1">
          <mxGeometry x="120" y="400" width="40" height="40" as="geometry" />
        </mxCell>
        <mxCell id="U962CbWCgU4uKYsuo5xB-37" value="88" style="rounded=0;whiteSpace=wrap;html=1;" vertex="1" parent="1">
          <mxGeometry x="160" y="400" width="40" height="40" as="geometry" />
        </mxCell>
        <mxCell id="U962CbWCgU4uKYsuo5xB-38" value="343" style="rounded=0;whiteSpace=wrap;html=1;fillColor=#dae8fc;strokeColor=#6c8ebf;" vertex="1" parent="1">
          <mxGeometry x="200" y="400" width="40" height="40" as="geometry" />
        </mxCell>
        <mxCell id="U962CbWCgU4uKYsuo5xB-39" value="0" style="rounded=0;whiteSpace=wrap;html=1;fillColor=#dae8fc;strokeColor=#6c8ebf;" vertex="1" parent="1">
          <mxGeometry x="240" y="400" width="40" height="40" as="geometry" />
        </mxCell>
        <mxCell id="U962CbWCgU4uKYsuo5xB-40" value="100" style="rounded=0;whiteSpace=wrap;html=1;" vertex="1" parent="1">
          <mxGeometry x="280" y="400" width="40" height="40" as="geometry" />
        </mxCell>
        <mxCell id="U962CbWCgU4uKYsuo5xB-41" value="" style="endArrow=classic;startArrow=classic;html=1;rounded=0;entryX=0.5;entryY=1;entryDx=0;entryDy=0;exitX=0.5;exitY=1;exitDx=0;exitDy=0;" edge="1" parent="1">
          <mxGeometry width="50" height="50" relative="1" as="geometry">
            <mxPoint x="220" y="440" as="sourcePoint" />
            <mxPoint x="260" y="440" as="targetPoint" />
            <Array as="points">
              <mxPoint x="240" y="470" />
            </Array>
          </mxGeometry>
        </mxCell>
        <mxCell id="U962CbWCgU4uKYsuo5xB-42" value="8" style="rounded=0;whiteSpace=wrap;html=1;" vertex="1" parent="1">
          <mxGeometry x="40" y="480" width="40" height="40" as="geometry" />
        </mxCell>
        <mxCell id="U962CbWCgU4uKYsuo5xB-43" value="16" style="rounded=0;whiteSpace=wrap;html=1;" vertex="1" parent="1">
          <mxGeometry x="80" y="480" width="40" height="40" as="geometry" />
        </mxCell>
        <mxCell id="U962CbWCgU4uKYsuo5xB-44" value="18" style="rounded=0;whiteSpace=wrap;html=1;" vertex="1" parent="1">
          <mxGeometry x="120" y="480" width="40" height="40" as="geometry" />
        </mxCell>
        <mxCell id="U962CbWCgU4uKYsuo5xB-45" value="88" style="rounded=0;whiteSpace=wrap;html=1;" vertex="1" parent="1">
          <mxGeometry x="160" y="480" width="40" height="40" as="geometry" />
        </mxCell>
        <mxCell id="U962CbWCgU4uKYsuo5xB-46" value="0" style="rounded=0;whiteSpace=wrap;html=1;" vertex="1" parent="1">
          <mxGeometry x="200" y="480" width="40" height="40" as="geometry" />
        </mxCell>
        <mxCell id="U962CbWCgU4uKYsuo5xB-47" value="343" style="rounded=0;whiteSpace=wrap;html=1;fillColor=#dae8fc;strokeColor=#6c8ebf;" vertex="1" parent="1">
          <mxGeometry x="240" y="480" width="40" height="40" as="geometry" />
        </mxCell>
        <mxCell id="U962CbWCgU4uKYsuo5xB-48" value="100" style="rounded=0;whiteSpace=wrap;html=1;fillColor=#dae8fc;strokeColor=#6c8ebf;" vertex="1" parent="1">
          <mxGeometry x="280" y="480" width="40" height="40" as="geometry" />
        </mxCell>
        <mxCell id="U962CbWCgU4uKYsuo5xB-49" value="" style="endArrow=classic;startArrow=classic;html=1;rounded=0;entryX=0.5;entryY=1;entryDx=0;entryDy=0;exitX=0.5;exitY=1;exitDx=0;exitDy=0;" edge="1" parent="1">
          <mxGeometry width="50" height="50" relative="1" as="geometry">
            <mxPoint x="260" y="520" as="sourcePoint" />
            <mxPoint x="300" y="520" as="targetPoint" />
            <Array as="points">
              <mxPoint x="280" y="550" />
            </Array>
          </mxGeometry>
        </mxCell>
        <mxCell id="U962CbWCgU4uKYsuo5xB-58" style="edgeStyle=orthogonalEdgeStyle;rounded=0;orthogonalLoop=1;jettySize=auto;html=1;exitX=0;exitY=0.5;exitDx=0;exitDy=0;entryX=0;entryY=0.5;entryDx=0;entryDy=0;" edge="1" parent="1" source="U962CbWCgU4uKYsuo5xB-50" target="U962CbWCgU4uKYsuo5xB-1">
          <mxGeometry relative="1" as="geometry" />
        </mxCell>
        <mxCell id="U962CbWCgU4uKYsuo5xB-50" value="8" style="rounded=0;whiteSpace=wrap;html=1;" vertex="1" parent="1">
          <mxGeometry x="40" y="560" width="40" height="40" as="geometry" />
        </mxCell>
        <mxCell id="U962CbWCgU4uKYsuo5xB-51" value="16" style="rounded=0;whiteSpace=wrap;html=1;" vertex="1" parent="1">
          <mxGeometry x="80" y="560" width="40" height="40" as="geometry" />
        </mxCell>
        <mxCell id="U962CbWCgU4uKYsuo5xB-52" value="18" style="rounded=0;whiteSpace=wrap;html=1;" vertex="1" parent="1">
          <mxGeometry x="120" y="560" width="40" height="40" as="geometry" />
        </mxCell>
        <mxCell id="U962CbWCgU4uKYsuo5xB-53" value="88" style="rounded=0;whiteSpace=wrap;html=1;" vertex="1" parent="1">
          <mxGeometry x="160" y="560" width="40" height="40" as="geometry" />
        </mxCell>
        <mxCell id="U962CbWCgU4uKYsuo5xB-54" value="0" style="rounded=0;whiteSpace=wrap;html=1;" vertex="1" parent="1">
          <mxGeometry x="200" y="560" width="40" height="40" as="geometry" />
        </mxCell>
        <mxCell id="U962CbWCgU4uKYsuo5xB-55" value="100" style="rounded=0;whiteSpace=wrap;html=1;" vertex="1" parent="1">
          <mxGeometry x="240" y="560" width="40" height="40" as="geometry" />
        </mxCell>
        <mxCell id="U962CbWCgU4uKYsuo5xB-56" value="343" style="rounded=0;whiteSpace=wrap;html=1;" vertex="1" parent="1">
          <mxGeometry x="280" y="560" width="40" height="40" as="geometry" />
        </mxCell>
        <mxCell id="U962CbWCgU4uKYsuo5xB-59" value="8" style="rounded=0;whiteSpace=wrap;html=1;fillColor=#dae8fc;strokeColor=#6c8ebf;" vertex="1" parent="1">
          <mxGeometry x="440" y="80" width="40" height="40" as="geometry" />
        </mxCell>
        <mxCell id="U962CbWCgU4uKYsuo5xB-60" value="16" style="rounded=0;whiteSpace=wrap;html=1;fillColor=#d5e8d4;strokeColor=#82b366;" vertex="1" parent="1">
          <mxGeometry x="480" y="80" width="40" height="40" as="geometry" />
        </mxCell>
        <mxCell id="U962CbWCgU4uKYsuo5xB-61" value="88" style="rounded=0;whiteSpace=wrap;html=1;" vertex="1" parent="1">
          <mxGeometry x="520" y="80" width="40" height="40" as="geometry" />
        </mxCell>
        <mxCell id="U962CbWCgU4uKYsuo5xB-62" value="18" style="rounded=0;whiteSpace=wrap;html=1;" vertex="1" parent="1">
          <mxGeometry x="560" y="80" width="40" height="40" as="geometry" />
        </mxCell>
        <mxCell id="U962CbWCgU4uKYsuo5xB-63" value="343" style="rounded=0;whiteSpace=wrap;html=1;" vertex="1" parent="1">
          <mxGeometry x="600" y="80" width="40" height="40" as="geometry" />
        </mxCell>
        <mxCell id="U962CbWCgU4uKYsuo5xB-64" value="0" style="rounded=0;whiteSpace=wrap;html=1;" vertex="1" parent="1">
          <mxGeometry x="640" y="80" width="40" height="40" as="geometry" />
        </mxCell>
        <mxCell id="U962CbWCgU4uKYsuo5xB-65" value="100" style="rounded=0;whiteSpace=wrap;html=1;" vertex="1" parent="1">
          <mxGeometry x="680" y="80" width="40" height="40" as="geometry" />
        </mxCell>
        <mxCell id="U962CbWCgU4uKYsuo5xB-66" value="Bubble" style="rounded=1;whiteSpace=wrap;html=1;" vertex="1" parent="1">
          <mxGeometry x="40" y="10" width="280" height="60" as="geometry" />
        </mxCell>
        <mxCell id="U962CbWCgU4uKYsuo5xB-67" value="insert" style="rounded=1;whiteSpace=wrap;html=1;" vertex="1" parent="1">
          <mxGeometry x="440" y="10" width="280" height="60" as="geometry" />
        </mxCell>
        <mxCell id="U962CbWCgU4uKYsuo5xB-69" value="" style="endArrow=classic;startArrow=classic;html=1;rounded=0;entryX=0.5;entryY=1;entryDx=0;entryDy=0;exitX=0.5;exitY=1;exitDx=0;exitDy=0;" edge="1" parent="1">
          <mxGeometry width="50" height="50" relative="1" as="geometry">
            <mxPoint x="460" y="120" as="sourcePoint" />
            <mxPoint x="500" y="120" as="targetPoint" />
            <Array as="points">
              <mxPoint x="480" y="150" />
            </Array>
          </mxGeometry>
        </mxCell>
        <mxCell id="U962CbWCgU4uKYsuo5xB-70" value="8" style="rounded=0;whiteSpace=wrap;html=1;fillColor=#dae8fc;strokeColor=#6c8ebf;" vertex="1" parent="1">
          <mxGeometry x="440" y="160" width="40" height="40" as="geometry" />
        </mxCell>
        <mxCell id="U962CbWCgU4uKYsuo5xB-71" value="16" style="rounded=0;whiteSpace=wrap;html=1;fillColor=#dae8fc;strokeColor=#6c8ebf;" vertex="1" parent="1">
          <mxGeometry x="480" y="160" width="40" height="40" as="geometry" />
        </mxCell>
        <mxCell id="U962CbWCgU4uKYsuo5xB-72" value="88" style="rounded=0;whiteSpace=wrap;html=1;fillColor=#d5e8d4;strokeColor=#82b366;" vertex="1" parent="1">
          <mxGeometry x="520" y="160" width="40" height="40" as="geometry" />
        </mxCell>
        <mxCell id="U962CbWCgU4uKYsuo5xB-73" value="18" style="rounded=0;whiteSpace=wrap;html=1;" vertex="1" parent="1">
          <mxGeometry x="560" y="160" width="40" height="40" as="geometry" />
        </mxCell>
        <mxCell id="U962CbWCgU4uKYsuo5xB-74" value="343" style="rounded=0;whiteSpace=wrap;html=1;" vertex="1" parent="1">
          <mxGeometry x="600" y="160" width="40" height="40" as="geometry" />
        </mxCell>
        <mxCell id="U962CbWCgU4uKYsuo5xB-75" value="0" style="rounded=0;whiteSpace=wrap;html=1;" vertex="1" parent="1">
          <mxGeometry x="640" y="160" width="40" height="40" as="geometry" />
        </mxCell>
        <mxCell id="U962CbWCgU4uKYsuo5xB-76" value="100" style="rounded=0;whiteSpace=wrap;html=1;" vertex="1" parent="1">
          <mxGeometry x="680" y="160" width="40" height="40" as="geometry" />
        </mxCell>
        <mxCell id="U962CbWCgU4uKYsuo5xB-77" value="" style="endArrow=classic;startArrow=classic;html=1;rounded=0;entryX=0.5;entryY=1;entryDx=0;entryDy=0;exitX=1;exitY=1;exitDx=0;exitDy=0;" edge="1" parent="1" source="U962CbWCgU4uKYsuo5xB-70" target="U962CbWCgU4uKYsuo5xB-72">
          <mxGeometry width="50" height="50" relative="1" as="geometry">
            <mxPoint x="460" y="200" as="sourcePoint" />
            <mxPoint x="500" y="200" as="targetPoint" />
            <Array as="points">
              <mxPoint x="510" y="230" />
            </Array>
          </mxGeometry>
        </mxCell>
        <mxCell id="U962CbWCgU4uKYsuo5xB-78" value="8" style="rounded=0;whiteSpace=wrap;html=1;fillColor=#dae8fc;strokeColor=#6c8ebf;" vertex="1" parent="1">
          <mxGeometry x="440" y="240" width="40" height="40" as="geometry" />
        </mxCell>
        <mxCell id="U962CbWCgU4uKYsuo5xB-79" value="16" style="rounded=0;whiteSpace=wrap;html=1;fillColor=#dae8fc;strokeColor=#6c8ebf;" vertex="1" parent="1">
          <mxGeometry x="480" y="240" width="40" height="40" as="geometry" />
        </mxCell>
        <mxCell id="U962CbWCgU4uKYsuo5xB-80" value="88" style="rounded=0;whiteSpace=wrap;html=1;fillColor=#dae8fc;strokeColor=#6c8ebf;" vertex="1" parent="1">
          <mxGeometry x="520" y="240" width="40" height="40" as="geometry" />
        </mxCell>
        <mxCell id="U962CbWCgU4uKYsuo5xB-86" style="edgeStyle=orthogonalEdgeStyle;rounded=0;orthogonalLoop=1;jettySize=auto;html=1;exitX=0.75;exitY=1;exitDx=0;exitDy=0;entryX=0;entryY=1;entryDx=0;entryDy=0;" edge="1" parent="1" source="U962CbWCgU4uKYsuo5xB-81" target="U962CbWCgU4uKYsuo5xB-80">
          <mxGeometry relative="1" as="geometry" />
        </mxCell>
        <mxCell id="U962CbWCgU4uKYsuo5xB-81" value="18" style="rounded=0;whiteSpace=wrap;html=1;fillColor=#d5e8d4;strokeColor=#82b366;" vertex="1" parent="1">
          <mxGeometry x="560" y="240" width="40" height="40" as="geometry" />
        </mxCell>
        <mxCell id="U962CbWCgU4uKYsuo5xB-82" value="343" style="rounded=0;whiteSpace=wrap;html=1;" vertex="1" parent="1">
          <mxGeometry x="600" y="240" width="40" height="40" as="geometry" />
        </mxCell>
        <mxCell id="U962CbWCgU4uKYsuo5xB-83" value="0" style="rounded=0;whiteSpace=wrap;html=1;" vertex="1" parent="1">
          <mxGeometry x="640" y="240" width="40" height="40" as="geometry" />
        </mxCell>
        <mxCell id="U962CbWCgU4uKYsuo5xB-84" value="100" style="rounded=0;whiteSpace=wrap;html=1;" vertex="1" parent="1">
          <mxGeometry x="680" y="240" width="40" height="40" as="geometry" />
        </mxCell>
        <mxCell id="U962CbWCgU4uKYsuo5xB-85" value="" style="endArrow=classic;startArrow=classic;html=1;rounded=0;entryX=0.5;entryY=1;entryDx=0;entryDy=0;exitX=0.5;exitY=1;exitDx=0;exitDy=0;" edge="1" parent="1" source="U962CbWCgU4uKYsuo5xB-79" target="U962CbWCgU4uKYsuo5xB-81">
          <mxGeometry width="50" height="50" relative="1" as="geometry">
            <mxPoint x="460" y="280" as="sourcePoint" />
            <mxPoint x="500" y="280" as="targetPoint" />
            <Array as="points">
              <mxPoint x="540" y="310" />
            </Array>
          </mxGeometry>
        </mxCell>
        <mxCell id="U962CbWCgU4uKYsuo5xB-87" value="8" style="rounded=0;whiteSpace=wrap;html=1;fillColor=#dae8fc;strokeColor=#6c8ebf;" vertex="1" parent="1">
          <mxGeometry x="440" y="320" width="40" height="40" as="geometry" />
        </mxCell>
        <mxCell id="U962CbWCgU4uKYsuo5xB-88" value="16" style="rounded=0;whiteSpace=wrap;html=1;fillColor=#dae8fc;strokeColor=#6c8ebf;" vertex="1" parent="1">
          <mxGeometry x="480" y="320" width="40" height="40" as="geometry" />
        </mxCell>
        <mxCell id="U962CbWCgU4uKYsuo5xB-89" value="88" style="rounded=0;whiteSpace=wrap;html=1;fillColor=#dae8fc;strokeColor=#6c8ebf;" vertex="1" parent="1">
          <mxGeometry x="560" y="320" width="40" height="40" as="geometry" />
        </mxCell>
        <mxCell id="U962CbWCgU4uKYsuo5xB-91" value="18" style="rounded=0;whiteSpace=wrap;html=1;fillColor=#dae8fc;strokeColor=#6c8ebf;" vertex="1" parent="1">
          <mxGeometry x="520" y="320" width="40" height="40" as="geometry" />
        </mxCell>
        <mxCell id="U962CbWCgU4uKYsuo5xB-92" value="343" style="rounded=0;whiteSpace=wrap;html=1;fillColor=#d5e8d4;strokeColor=#82b366;" vertex="1" parent="1">
          <mxGeometry x="600" y="320" width="40" height="40" as="geometry" />
        </mxCell>
        <mxCell id="U962CbWCgU4uKYsuo5xB-93" value="0" style="rounded=0;whiteSpace=wrap;html=1;" vertex="1" parent="1">
          <mxGeometry x="640" y="320" width="40" height="40" as="geometry" />
        </mxCell>
        <mxCell id="U962CbWCgU4uKYsuo5xB-94" value="100" style="rounded=0;whiteSpace=wrap;html=1;" vertex="1" parent="1">
          <mxGeometry x="680" y="320" width="40" height="40" as="geometry" />
        </mxCell>
        <mxCell id="U962CbWCgU4uKYsuo5xB-95" value="" style="endArrow=classic;startArrow=classic;html=1;rounded=0;entryX=0.5;entryY=1;entryDx=0;entryDy=0;exitX=1;exitY=1;exitDx=0;exitDy=0;" edge="1" parent="1" source="U962CbWCgU4uKYsuo5xB-88" target="U962CbWCgU4uKYsuo5xB-92">
          <mxGeometry width="50" height="50" relative="1" as="geometry">
            <mxPoint x="460" y="360" as="sourcePoint" />
            <mxPoint x="500" y="360" as="targetPoint" />
            <Array as="points">
              <mxPoint x="570" y="390" />
            </Array>
          </mxGeometry>
        </mxCell>
        <mxCell id="U962CbWCgU4uKYsuo5xB-96" value="8" style="rounded=0;whiteSpace=wrap;html=1;fillColor=#dae8fc;strokeColor=#6c8ebf;" vertex="1" parent="1">
          <mxGeometry x="440" y="400" width="40" height="40" as="geometry" />
        </mxCell>
        <mxCell id="U962CbWCgU4uKYsuo5xB-97" value="16" style="rounded=0;whiteSpace=wrap;html=1;fillColor=#dae8fc;strokeColor=#6c8ebf;" vertex="1" parent="1">
          <mxGeometry x="480" y="400" width="40" height="40" as="geometry" />
        </mxCell>
        <mxCell id="U962CbWCgU4uKYsuo5xB-98" value="88" style="rounded=0;whiteSpace=wrap;html=1;fillColor=#dae8fc;strokeColor=#6c8ebf;" vertex="1" parent="1">
          <mxGeometry x="560" y="400" width="40" height="40" as="geometry" />
        </mxCell>
        <mxCell id="U962CbWCgU4uKYsuo5xB-99" value="18" style="rounded=0;whiteSpace=wrap;html=1;fillColor=#dae8fc;strokeColor=#6c8ebf;" vertex="1" parent="1">
          <mxGeometry x="520" y="400" width="40" height="40" as="geometry" />
        </mxCell>
        <mxCell id="U962CbWCgU4uKYsuo5xB-100" value="343" style="rounded=0;whiteSpace=wrap;html=1;fillColor=#dae8fc;strokeColor=#6c8ebf;" vertex="1" parent="1">
          <mxGeometry x="600" y="400" width="40" height="40" as="geometry" />
        </mxCell>
        <mxCell id="U962CbWCgU4uKYsuo5xB-104" style="edgeStyle=orthogonalEdgeStyle;rounded=0;orthogonalLoop=1;jettySize=auto;html=1;exitX=0.75;exitY=1;exitDx=0;exitDy=0;entryX=0;entryY=1;entryDx=0;entryDy=0;" edge="1" parent="1" source="U962CbWCgU4uKYsuo5xB-101" target="U962CbWCgU4uKYsuo5xB-96">
          <mxGeometry relative="1" as="geometry" />
        </mxCell>
        <mxCell id="U962CbWCgU4uKYsuo5xB-101" value="0" style="rounded=0;whiteSpace=wrap;html=1;fillColor=#d5e8d4;strokeColor=#82b366;" vertex="1" parent="1">
          <mxGeometry x="640" y="400" width="40" height="40" as="geometry" />
        </mxCell>
        <mxCell id="U962CbWCgU4uKYsuo5xB-133" style="edgeStyle=orthogonalEdgeStyle;rounded=0;orthogonalLoop=1;jettySize=auto;html=1;exitX=1;exitY=0.5;exitDx=0;exitDy=0;entryX=0;entryY=0.5;entryDx=0;entryDy=0;" edge="1" parent="1" source="U962CbWCgU4uKYsuo5xB-102" target="U962CbWCgU4uKYsuo5xB-124">
          <mxGeometry relative="1" as="geometry" />
        </mxCell>
        <mxCell id="U962CbWCgU4uKYsuo5xB-102" value="100" style="rounded=0;whiteSpace=wrap;html=1;" vertex="1" parent="1">
          <mxGeometry x="680" y="400" width="40" height="40" as="geometry" />
        </mxCell>
        <mxCell id="U962CbWCgU4uKYsuo5xB-103" value="" style="endArrow=classic;startArrow=classic;html=1;rounded=0;entryX=0.5;entryY=1;entryDx=0;entryDy=0;exitX=0.5;exitY=1;exitDx=0;exitDy=0;" edge="1" parent="1" source="U962CbWCgU4uKYsuo5xB-99" target="U962CbWCgU4uKYsuo5xB-101">
          <mxGeometry width="50" height="50" relative="1" as="geometry">
            <mxPoint x="460" y="440" as="sourcePoint" />
            <mxPoint x="500" y="440" as="targetPoint" />
            <Array as="points">
              <mxPoint x="600" y="470" />
            </Array>
          </mxGeometry>
        </mxCell>
        <mxCell id="U962CbWCgU4uKYsuo5xB-105" value="8" style="rounded=0;whiteSpace=wrap;html=1;fillColor=#dae8fc;strokeColor=#6c8ebf;" vertex="1" parent="1">
          <mxGeometry x="480" y="480" width="40" height="40" as="geometry" />
        </mxCell>
        <mxCell id="U962CbWCgU4uKYsuo5xB-106" value="16" style="rounded=0;whiteSpace=wrap;html=1;fillColor=#dae8fc;strokeColor=#6c8ebf;" vertex="1" parent="1">
          <mxGeometry x="520" y="480" width="40" height="40" as="geometry" />
        </mxCell>
        <mxCell id="U962CbWCgU4uKYsuo5xB-107" value="88" style="rounded=0;whiteSpace=wrap;html=1;fillColor=#dae8fc;strokeColor=#6c8ebf;" vertex="1" parent="1">
          <mxGeometry x="600" y="480" width="40" height="40" as="geometry" />
        </mxCell>
        <mxCell id="U962CbWCgU4uKYsuo5xB-108" value="18" style="rounded=0;whiteSpace=wrap;html=1;fillColor=#dae8fc;strokeColor=#6c8ebf;" vertex="1" parent="1">
          <mxGeometry x="560" y="480" width="40" height="40" as="geometry" />
        </mxCell>
        <mxCell id="U962CbWCgU4uKYsuo5xB-109" value="343" style="rounded=0;whiteSpace=wrap;html=1;fillColor=#dae8fc;strokeColor=#6c8ebf;" vertex="1" parent="1">
          <mxGeometry x="640" y="480" width="40" height="40" as="geometry" />
        </mxCell>
        <mxCell id="U962CbWCgU4uKYsuo5xB-115" style="edgeStyle=orthogonalEdgeStyle;rounded=0;orthogonalLoop=1;jettySize=auto;html=1;exitX=0.75;exitY=1;exitDx=0;exitDy=0;entryX=1;entryY=1;entryDx=0;entryDy=0;" edge="1" parent="1" source="U962CbWCgU4uKYsuo5xB-112" target="U962CbWCgU4uKYsuo5xB-107">
          <mxGeometry relative="1" as="geometry" />
        </mxCell>
        <mxCell id="U962CbWCgU4uKYsuo5xB-112" value="100" style="rounded=0;whiteSpace=wrap;html=1;fillColor=#d5e8d4;strokeColor=#82b366;" vertex="1" parent="1">
          <mxGeometry x="680" y="480" width="40" height="40" as="geometry" />
        </mxCell>
        <mxCell id="U962CbWCgU4uKYsuo5xB-113" value="" style="endArrow=classic;startArrow=classic;html=1;rounded=0;entryX=0.5;entryY=1;entryDx=0;entryDy=0;exitX=1;exitY=1;exitDx=0;exitDy=0;" edge="1" parent="1" source="U962CbWCgU4uKYsuo5xB-106" target="U962CbWCgU4uKYsuo5xB-112">
          <mxGeometry width="50" height="50" relative="1" as="geometry">
            <mxPoint x="460" y="520" as="sourcePoint" />
            <mxPoint x="660" y="520" as="targetPoint" />
            <Array as="points">
              <mxPoint x="640" y="550" />
            </Array>
          </mxGeometry>
        </mxCell>
        <mxCell id="U962CbWCgU4uKYsuo5xB-114" value="0" style="rounded=0;whiteSpace=wrap;html=1;fillColor=#dae8fc;strokeColor=#6c8ebf;" vertex="1" parent="1">
          <mxGeometry x="440" y="480" width="40" height="40" as="geometry" />
        </mxCell>
        <mxCell id="U962CbWCgU4uKYsuo5xB-116" value="8" style="rounded=0;whiteSpace=wrap;html=1;" vertex="1" parent="1">
          <mxGeometry x="440" y="560" width="40" height="40" as="geometry" />
        </mxCell>
        <mxCell id="U962CbWCgU4uKYsuo5xB-117" value="16" style="rounded=0;whiteSpace=wrap;html=1;" vertex="1" parent="1">
          <mxGeometry x="480" y="560" width="40" height="40" as="geometry" />
        </mxCell>
        <mxCell id="U962CbWCgU4uKYsuo5xB-118" value="18" style="rounded=0;whiteSpace=wrap;html=1;" vertex="1" parent="1">
          <mxGeometry x="520" y="560" width="40" height="40" as="geometry" />
        </mxCell>
        <mxCell id="U962CbWCgU4uKYsuo5xB-119" value="88" style="rounded=0;whiteSpace=wrap;html=1;" vertex="1" parent="1">
          <mxGeometry x="560" y="560" width="40" height="40" as="geometry" />
        </mxCell>
        <mxCell id="U962CbWCgU4uKYsuo5xB-120" value="0" style="rounded=0;whiteSpace=wrap;html=1;" vertex="1" parent="1">
          <mxGeometry x="600" y="560" width="40" height="40" as="geometry" />
        </mxCell>
        <mxCell id="U962CbWCgU4uKYsuo5xB-121" value="100" style="rounded=0;whiteSpace=wrap;html=1;" vertex="1" parent="1">
          <mxGeometry x="640" y="560" width="40" height="40" as="geometry" />
        </mxCell>
        <mxCell id="U962CbWCgU4uKYsuo5xB-122" value="343" style="rounded=0;whiteSpace=wrap;html=1;" vertex="1" parent="1">
          <mxGeometry x="680" y="560" width="40" height="40" as="geometry" />
        </mxCell>
        <mxCell id="U962CbWCgU4uKYsuo5xB-124" value="8" style="rounded=0;whiteSpace=wrap;html=1;fillColor=#dae8fc;strokeColor=#6c8ebf;" vertex="1" parent="1">
          <mxGeometry x="840" y="80" width="40" height="40" as="geometry" />
        </mxCell>
        <mxCell id="U962CbWCgU4uKYsuo5xB-125" value="16" style="rounded=0;whiteSpace=wrap;html=1;fillColor=#dae8fc;strokeColor=#6c8ebf;" vertex="1" parent="1">
          <mxGeometry x="880" y="80" width="40" height="40" as="geometry" />
        </mxCell>
        <mxCell id="U962CbWCgU4uKYsuo5xB-126" value="88" style="rounded=0;whiteSpace=wrap;html=1;fillColor=#dae8fc;strokeColor=#6c8ebf;" vertex="1" parent="1">
          <mxGeometry x="960" y="80" width="40" height="40" as="geometry" />
        </mxCell>
        <mxCell id="U962CbWCgU4uKYsuo5xB-127" value="18" style="rounded=0;whiteSpace=wrap;html=1;fillColor=#dae8fc;strokeColor=#6c8ebf;" vertex="1" parent="1">
          <mxGeometry x="920" y="80" width="40" height="40" as="geometry" />
        </mxCell>
        <mxCell id="U962CbWCgU4uKYsuo5xB-128" value="343" style="rounded=0;whiteSpace=wrap;html=1;fillColor=#dae8fc;strokeColor=#6c8ebf;" vertex="1" parent="1">
          <mxGeometry x="1000" y="80" width="40" height="40" as="geometry" />
        </mxCell>
        <mxCell id="U962CbWCgU4uKYsuo5xB-130" value="0" style="rounded=0;whiteSpace=wrap;html=1;fillColor=#d5e8d4;strokeColor=#82b366;" vertex="1" parent="1">
          <mxGeometry x="1040" y="80" width="40" height="40" as="geometry" />
        </mxCell>
        <mxCell id="U962CbWCgU4uKYsuo5xB-131" value="100" style="rounded=0;whiteSpace=wrap;html=1;" vertex="1" parent="1">
          <mxGeometry x="1080" y="80" width="40" height="40" as="geometry" />
        </mxCell>
        <mxCell id="U962CbWCgU4uKYsuo5xB-132" value="" style="endArrow=classic;startArrow=classic;html=1;rounded=0;entryX=0.5;entryY=1;entryDx=0;entryDy=0;exitX=0.5;exitY=1;exitDx=0;exitDy=0;" edge="1" parent="1" source="U962CbWCgU4uKYsuo5xB-128" target="U962CbWCgU4uKYsuo5xB-130">
          <mxGeometry width="50" height="50" relative="1" as="geometry">
            <mxPoint x="860" y="120" as="sourcePoint" />
            <mxPoint x="900" y="120" as="targetPoint" />
            <Array as="points">
              <mxPoint x="1040" y="150" />
            </Array>
          </mxGeometry>
        </mxCell>
        <mxCell id="U962CbWCgU4uKYsuo5xB-134" value="8" style="rounded=0;whiteSpace=wrap;html=1;fillColor=#dae8fc;strokeColor=#6c8ebf;" vertex="1" parent="1">
          <mxGeometry x="840" y="160" width="40" height="40" as="geometry" />
        </mxCell>
        <mxCell id="U962CbWCgU4uKYsuo5xB-135" value="16" style="rounded=0;whiteSpace=wrap;html=1;fillColor=#dae8fc;strokeColor=#6c8ebf;" vertex="1" parent="1">
          <mxGeometry x="880" y="160" width="40" height="40" as="geometry" />
        </mxCell>
        <mxCell id="U962CbWCgU4uKYsuo5xB-136" value="88" style="rounded=0;whiteSpace=wrap;html=1;fillColor=#dae8fc;strokeColor=#6c8ebf;" vertex="1" parent="1">
          <mxGeometry x="960" y="160" width="40" height="40" as="geometry" />
        </mxCell>
        <mxCell id="U962CbWCgU4uKYsuo5xB-137" value="18" style="rounded=0;whiteSpace=wrap;html=1;fillColor=#dae8fc;strokeColor=#6c8ebf;" vertex="1" parent="1">
          <mxGeometry x="920" y="160" width="40" height="40" as="geometry" />
        </mxCell>
        <mxCell id="U962CbWCgU4uKYsuo5xB-138" value="343" style="rounded=0;whiteSpace=wrap;html=1;fillColor=#dae8fc;strokeColor=#6c8ebf;" vertex="1" parent="1">
          <mxGeometry x="1040" y="160" width="40" height="40" as="geometry" />
        </mxCell>
        <mxCell id="U962CbWCgU4uKYsuo5xB-139" value="0" style="rounded=0;whiteSpace=wrap;html=1;fillColor=#d5e8d4;strokeColor=#82b366;" vertex="1" parent="1">
          <mxGeometry x="1000" y="160" width="40" height="40" as="geometry" />
        </mxCell>
        <mxCell id="U962CbWCgU4uKYsuo5xB-140" value="100" style="rounded=0;whiteSpace=wrap;html=1;" vertex="1" parent="1">
          <mxGeometry x="1080" y="160" width="40" height="40" as="geometry" />
        </mxCell>
        <mxCell id="U962CbWCgU4uKYsuo5xB-141" value="" style="endArrow=classic;startArrow=classic;html=1;rounded=0;entryX=0.5;entryY=1;entryDx=0;entryDy=0;exitX=0.5;exitY=1;exitDx=0;exitDy=0;" edge="1" parent="1">
          <mxGeometry width="50" height="50" relative="1" as="geometry">
            <mxPoint x="1020" y="200" as="sourcePoint" />
            <mxPoint x="980" y="200" as="targetPoint" />
            <Array as="points">
              <mxPoint x="1000" y="230" />
            </Array>
          </mxGeometry>
        </mxCell>
        <mxCell id="U962CbWCgU4uKYsuo5xB-142" value="8" style="rounded=0;whiteSpace=wrap;html=1;fillColor=#dae8fc;strokeColor=#6c8ebf;" vertex="1" parent="1">
          <mxGeometry x="840" y="240" width="40" height="40" as="geometry" />
        </mxCell>
        <mxCell id="U962CbWCgU4uKYsuo5xB-143" value="16" style="rounded=0;whiteSpace=wrap;html=1;fillColor=#dae8fc;strokeColor=#6c8ebf;" vertex="1" parent="1">
          <mxGeometry x="880" y="240" width="40" height="40" as="geometry" />
        </mxCell>
        <mxCell id="U962CbWCgU4uKYsuo5xB-144" value="88" style="rounded=0;whiteSpace=wrap;html=1;fillColor=#dae8fc;strokeColor=#6c8ebf;" vertex="1" parent="1">
          <mxGeometry x="1000" y="240" width="40" height="40" as="geometry" />
        </mxCell>
        <mxCell id="U962CbWCgU4uKYsuo5xB-145" value="18" style="rounded=0;whiteSpace=wrap;html=1;fillColor=#dae8fc;strokeColor=#6c8ebf;" vertex="1" parent="1">
          <mxGeometry x="920" y="240" width="40" height="40" as="geometry" />
        </mxCell>
        <mxCell id="U962CbWCgU4uKYsuo5xB-146" value="343" style="rounded=0;whiteSpace=wrap;html=1;fillColor=#dae8fc;strokeColor=#6c8ebf;" vertex="1" parent="1">
          <mxGeometry x="1040" y="240" width="40" height="40" as="geometry" />
        </mxCell>
        <mxCell id="U962CbWCgU4uKYsuo5xB-147" value="0" style="rounded=0;whiteSpace=wrap;html=1;fillColor=#d5e8d4;strokeColor=#82b366;" vertex="1" parent="1">
          <mxGeometry x="960" y="240" width="40" height="40" as="geometry" />
        </mxCell>
        <mxCell id="U962CbWCgU4uKYsuo5xB-148" value="100" style="rounded=0;whiteSpace=wrap;html=1;" vertex="1" parent="1">
          <mxGeometry x="1080" y="240" width="40" height="40" as="geometry" />
        </mxCell>
        <mxCell id="U962CbWCgU4uKYsuo5xB-149" value="" style="endArrow=classic;startArrow=classic;html=1;rounded=0;entryX=0.5;entryY=1;entryDx=0;entryDy=0;exitX=0.5;exitY=1;exitDx=0;exitDy=0;" edge="1" parent="1">
          <mxGeometry width="50" height="50" relative="1" as="geometry">
            <mxPoint x="980" y="280" as="sourcePoint" />
            <mxPoint x="940" y="280" as="targetPoint" />
            <Array as="points">
              <mxPoint x="960" y="310" />
            </Array>
          </mxGeometry>
        </mxCell>
        <mxCell id="U962CbWCgU4uKYsuo5xB-150" value="8" style="rounded=0;whiteSpace=wrap;html=1;fillColor=#dae8fc;strokeColor=#6c8ebf;" vertex="1" parent="1">
          <mxGeometry x="840" y="320" width="40" height="40" as="geometry" />
        </mxCell>
        <mxCell id="U962CbWCgU4uKYsuo5xB-151" value="16" style="rounded=0;whiteSpace=wrap;html=1;fillColor=#dae8fc;strokeColor=#6c8ebf;" vertex="1" parent="1">
          <mxGeometry x="880" y="320" width="40" height="40" as="geometry" />
        </mxCell>
        <mxCell id="U962CbWCgU4uKYsuo5xB-152" value="88" style="rounded=0;whiteSpace=wrap;html=1;fillColor=#dae8fc;strokeColor=#6c8ebf;" vertex="1" parent="1">
          <mxGeometry x="1000" y="320" width="40" height="40" as="geometry" />
        </mxCell>
        <mxCell id="U962CbWCgU4uKYsuo5xB-153" value="18" style="rounded=0;whiteSpace=wrap;html=1;fillColor=#dae8fc;strokeColor=#6c8ebf;" vertex="1" parent="1">
          <mxGeometry x="960" y="320" width="40" height="40" as="geometry" />
        </mxCell>
        <mxCell id="U962CbWCgU4uKYsuo5xB-154" value="343" style="rounded=0;whiteSpace=wrap;html=1;fillColor=#dae8fc;strokeColor=#6c8ebf;" vertex="1" parent="1">
          <mxGeometry x="1040" y="320" width="40" height="40" as="geometry" />
        </mxCell>
        <mxCell id="U962CbWCgU4uKYsuo5xB-155" value="0" style="rounded=0;whiteSpace=wrap;html=1;fillColor=#d5e8d4;strokeColor=#82b366;" vertex="1" parent="1">
          <mxGeometry x="920" y="320" width="40" height="40" as="geometry" />
        </mxCell>
        <mxCell id="U962CbWCgU4uKYsuo5xB-156" value="100" style="rounded=0;whiteSpace=wrap;html=1;" vertex="1" parent="1">
          <mxGeometry x="1080" y="320" width="40" height="40" as="geometry" />
        </mxCell>
        <mxCell id="U962CbWCgU4uKYsuo5xB-157" value="" style="endArrow=classic;startArrow=classic;html=1;rounded=0;entryX=0.5;entryY=1;entryDx=0;entryDy=0;exitX=0.5;exitY=1;exitDx=0;exitDy=0;" edge="1" parent="1">
          <mxGeometry width="50" height="50" relative="1" as="geometry">
            <mxPoint x="940" y="360" as="sourcePoint" />
            <mxPoint x="900" y="360" as="targetPoint" />
            <Array as="points">
              <mxPoint x="920" y="390" />
            </Array>
          </mxGeometry>
        </mxCell>
        <mxCell id="U962CbWCgU4uKYsuo5xB-158" value="8" style="rounded=0;whiteSpace=wrap;html=1;fillColor=#dae8fc;strokeColor=#6c8ebf;" vertex="1" parent="1">
          <mxGeometry x="840" y="400" width="40" height="40" as="geometry" />
        </mxCell>
        <mxCell id="U962CbWCgU4uKYsuo5xB-159" value="16" style="rounded=0;whiteSpace=wrap;html=1;fillColor=#dae8fc;strokeColor=#6c8ebf;" vertex="1" parent="1">
          <mxGeometry x="920" y="400" width="40" height="40" as="geometry" />
        </mxCell>
        <mxCell id="U962CbWCgU4uKYsuo5xB-160" value="88" style="rounded=0;whiteSpace=wrap;html=1;fillColor=#dae8fc;strokeColor=#6c8ebf;" vertex="1" parent="1">
          <mxGeometry x="1000" y="400" width="40" height="40" as="geometry" />
        </mxCell>
        <mxCell id="U962CbWCgU4uKYsuo5xB-161" value="18" style="rounded=0;whiteSpace=wrap;html=1;fillColor=#dae8fc;strokeColor=#6c8ebf;" vertex="1" parent="1">
          <mxGeometry x="960" y="400" width="40" height="40" as="geometry" />
        </mxCell>
        <mxCell id="U962CbWCgU4uKYsuo5xB-162" value="343" style="rounded=0;whiteSpace=wrap;html=1;fillColor=#dae8fc;strokeColor=#6c8ebf;" vertex="1" parent="1">
          <mxGeometry x="1040" y="400" width="40" height="40" as="geometry" />
        </mxCell>
        <mxCell id="U962CbWCgU4uKYsuo5xB-163" value="0" style="rounded=0;whiteSpace=wrap;html=1;fillColor=#d5e8d4;strokeColor=#82b366;" vertex="1" parent="1">
          <mxGeometry x="880" y="400" width="40" height="40" as="geometry" />
        </mxCell>
        <mxCell id="U962CbWCgU4uKYsuo5xB-164" value="100" style="rounded=0;whiteSpace=wrap;html=1;" vertex="1" parent="1">
          <mxGeometry x="1080" y="400" width="40" height="40" as="geometry" />
        </mxCell>
        <mxCell id="U962CbWCgU4uKYsuo5xB-165" value="" style="endArrow=classic;startArrow=classic;html=1;rounded=0;entryX=0.5;entryY=1;entryDx=0;entryDy=0;exitX=0.5;exitY=1;exitDx=0;exitDy=0;" edge="1" parent="1">
          <mxGeometry width="50" height="50" relative="1" as="geometry">
            <mxPoint x="900" y="440" as="sourcePoint" />
            <mxPoint x="860" y="440" as="targetPoint" />
            <Array as="points">
              <mxPoint x="880" y="470" />
            </Array>
          </mxGeometry>
        </mxCell>
        <mxCell id="U962CbWCgU4uKYsuo5xB-166" value="8" style="rounded=0;whiteSpace=wrap;html=1;fillColor=#dae8fc;strokeColor=#6c8ebf;" vertex="1" parent="1">
          <mxGeometry x="880" y="480" width="40" height="40" as="geometry" />
        </mxCell>
        <mxCell id="U962CbWCgU4uKYsuo5xB-167" value="16" style="rounded=0;whiteSpace=wrap;html=1;fillColor=#dae8fc;strokeColor=#6c8ebf;" vertex="1" parent="1">
          <mxGeometry x="920" y="480" width="40" height="40" as="geometry" />
        </mxCell>
        <mxCell id="U962CbWCgU4uKYsuo5xB-168" value="88" style="rounded=0;whiteSpace=wrap;html=1;fillColor=#dae8fc;strokeColor=#6c8ebf;" vertex="1" parent="1">
          <mxGeometry x="1000" y="480" width="40" height="40" as="geometry" />
        </mxCell>
        <mxCell id="U962CbWCgU4uKYsuo5xB-169" value="18" style="rounded=0;whiteSpace=wrap;html=1;fillColor=#dae8fc;strokeColor=#6c8ebf;" vertex="1" parent="1">
          <mxGeometry x="960" y="480" width="40" height="40" as="geometry" />
        </mxCell>
        <mxCell id="U962CbWCgU4uKYsuo5xB-170" value="343" style="rounded=0;whiteSpace=wrap;html=1;fillColor=#dae8fc;strokeColor=#6c8ebf;" vertex="1" parent="1">
          <mxGeometry x="1040" y="480" width="40" height="40" as="geometry" />
        </mxCell>
        <mxCell id="U962CbWCgU4uKYsuo5xB-173" style="edgeStyle=orthogonalEdgeStyle;rounded=0;orthogonalLoop=1;jettySize=auto;html=1;exitX=0;exitY=0.5;exitDx=0;exitDy=0;entryX=1;entryY=0.5;entryDx=0;entryDy=0;" edge="1" parent="1" source="U962CbWCgU4uKYsuo5xB-171" target="U962CbWCgU4uKYsuo5xB-112">
          <mxGeometry relative="1" as="geometry" />
        </mxCell>
        <mxCell id="U962CbWCgU4uKYsuo5xB-171" value="0" style="rounded=0;whiteSpace=wrap;html=1;fillColor=#d5e8d4;strokeColor=#82b366;" vertex="1" parent="1">
          <mxGeometry x="840" y="480" width="40" height="40" as="geometry" />
        </mxCell>
        <mxCell id="U962CbWCgU4uKYsuo5xB-172" value="100" style="rounded=0;whiteSpace=wrap;html=1;" vertex="1" parent="1">
          <mxGeometry x="1080" y="480" width="40" height="40" as="geometry" />
        </mxCell>
        <mxCell id="U962CbWCgU4uKYsuo5xB-175" value="select" style="rounded=1;whiteSpace=wrap;html=1;" vertex="1" parent="1">
          <mxGeometry x="1240" y="10" width="280" height="60" as="geometry" />
        </mxCell>
        <mxCell id="U962CbWCgU4uKYsuo5xB-176" value="8" style="rounded=0;whiteSpace=wrap;html=1;fillColor=#dae8fc;strokeColor=#6c8ebf;" vertex="1" parent="1">
          <mxGeometry x="1320" y="80" width="40" height="40" as="geometry" />
        </mxCell>
        <mxCell id="U962CbWCgU4uKYsuo5xB-177" value="16" style="rounded=0;whiteSpace=wrap;html=1;fillColor=#dae8fc;strokeColor=#6c8ebf;" vertex="1" parent="1">
          <mxGeometry x="1360" y="80" width="40" height="40" as="geometry" />
        </mxCell>
        <mxCell id="U962CbWCgU4uKYsuo5xB-178" value="88" style="rounded=0;whiteSpace=wrap;html=1;fillColor=#dae8fc;strokeColor=#6c8ebf;" vertex="1" parent="1">
          <mxGeometry x="1400" y="80" width="40" height="40" as="geometry" />
        </mxCell>
        <mxCell id="U962CbWCgU4uKYsuo5xB-179" value="18" style="rounded=0;whiteSpace=wrap;html=1;fillColor=#dae8fc;strokeColor=#6c8ebf;" vertex="1" parent="1">
          <mxGeometry x="1440" y="80" width="40" height="40" as="geometry" />
        </mxCell>
        <mxCell id="U962CbWCgU4uKYsuo5xB-180" value="343" style="rounded=0;whiteSpace=wrap;html=1;fillColor=#dae8fc;strokeColor=#6c8ebf;" vertex="1" parent="1">
          <mxGeometry x="1480" y="80" width="40" height="40" as="geometry" />
        </mxCell>
        <mxCell id="U962CbWCgU4uKYsuo5xB-186" style="edgeStyle=orthogonalEdgeStyle;rounded=0;orthogonalLoop=1;jettySize=auto;html=1;exitX=0.5;exitY=1;exitDx=0;exitDy=0;entryX=0.5;entryY=1;entryDx=0;entryDy=0;startArrow=classic;startFill=1;" edge="1" parent="1" source="U962CbWCgU4uKYsuo5xB-181" target="U962CbWCgU4uKYsuo5xB-176">
          <mxGeometry relative="1" as="geometry" />
        </mxCell>
        <mxCell id="U962CbWCgU4uKYsuo5xB-181" value="0" style="rounded=0;whiteSpace=wrap;html=1;fillColor=#dae8fc;strokeColor=#6c8ebf;" vertex="1" parent="1">
          <mxGeometry x="1520" y="80" width="40" height="40" as="geometry" />
        </mxCell>
        <mxCell id="U962CbWCgU4uKYsuo5xB-182" value="100" style="rounded=0;whiteSpace=wrap;html=1;fillColor=#dae8fc;strokeColor=#6c8ebf;" vertex="1" parent="1">
          <mxGeometry x="1560" y="80" width="40" height="40" as="geometry" />
        </mxCell>
        <mxCell id="U962CbWCgU4uKYsuo5xB-184" value="0" style="rounded=0;whiteSpace=wrap;html=1;fillColor=#d5e8d4;strokeColor=#82b366;" vertex="1" parent="1">
          <mxGeometry x="1240" y="80" width="40" height="40" as="geometry" />
        </mxCell>
        <mxCell id="U962CbWCgU4uKYsuo5xB-187" value="0" style="rounded=0;whiteSpace=wrap;html=1;" vertex="1" parent="1">
          <mxGeometry x="1320" y="160" width="40" height="40" as="geometry" />
        </mxCell>
        <mxCell id="U962CbWCgU4uKYsuo5xB-188" value="16" style="rounded=0;whiteSpace=wrap;html=1;fillColor=#dae8fc;strokeColor=#6c8ebf;" vertex="1" parent="1">
          <mxGeometry x="1360" y="160" width="40" height="40" as="geometry" />
        </mxCell>
        <mxCell id="U962CbWCgU4uKYsuo5xB-189" value="88" style="rounded=0;whiteSpace=wrap;html=1;fillColor=#dae8fc;strokeColor=#6c8ebf;" vertex="1" parent="1">
          <mxGeometry x="1400" y="160" width="40" height="40" as="geometry" />
        </mxCell>
        <mxCell id="U962CbWCgU4uKYsuo5xB-190" value="18" style="rounded=0;whiteSpace=wrap;html=1;fillColor=#dae8fc;strokeColor=#6c8ebf;" vertex="1" parent="1">
          <mxGeometry x="1440" y="160" width="40" height="40" as="geometry" />
        </mxCell>
        <mxCell id="U962CbWCgU4uKYsuo5xB-191" value="343" style="rounded=0;whiteSpace=wrap;html=1;fillColor=#dae8fc;strokeColor=#6c8ebf;" vertex="1" parent="1">
          <mxGeometry x="1480" y="160" width="40" height="40" as="geometry" />
        </mxCell>
        <mxCell id="U962CbWCgU4uKYsuo5xB-193" value="8" style="rounded=0;whiteSpace=wrap;html=1;fillColor=#dae8fc;strokeColor=#6c8ebf;" vertex="1" parent="1">
          <mxGeometry x="1520" y="160" width="40" height="40" as="geometry" />
        </mxCell>
        <mxCell id="U962CbWCgU4uKYsuo5xB-194" value="100" style="rounded=0;whiteSpace=wrap;html=1;fillColor=#dae8fc;strokeColor=#6c8ebf;" vertex="1" parent="1">
          <mxGeometry x="1560" y="160" width="40" height="40" as="geometry" />
        </mxCell>
        <mxCell id="U962CbWCgU4uKYsuo5xB-195" value="8" style="rounded=0;whiteSpace=wrap;html=1;fillColor=#d5e8d4;strokeColor=#82b366;" vertex="1" parent="1">
          <mxGeometry x="1240" y="160" width="40" height="40" as="geometry" />
        </mxCell>
        <mxCell id="U962CbWCgU4uKYsuo5xB-196" style="edgeStyle=orthogonalEdgeStyle;rounded=0;orthogonalLoop=1;jettySize=auto;html=1;exitX=0.5;exitY=1;exitDx=0;exitDy=0;entryX=0.5;entryY=1;entryDx=0;entryDy=0;startArrow=classic;startFill=1;" edge="1" parent="1" source="U962CbWCgU4uKYsuo5xB-193" target="U962CbWCgU4uKYsuo5xB-188">
          <mxGeometry relative="1" as="geometry">
            <mxPoint x="1560" y="240" as="sourcePoint" />
            <mxPoint x="1360" y="240" as="targetPoint" />
          </mxGeometry>
        </mxCell>
        <mxCell id="U962CbWCgU4uKYsuo5xB-197" value="0" style="rounded=0;whiteSpace=wrap;html=1;" vertex="1" parent="1">
          <mxGeometry x="1320" y="240" width="40" height="40" as="geometry" />
        </mxCell>
        <mxCell id="U962CbWCgU4uKYsuo5xB-198" value="8&lt;br&gt;" style="rounded=0;whiteSpace=wrap;html=1;" vertex="1" parent="1">
          <mxGeometry x="1360" y="240" width="40" height="40" as="geometry" />
        </mxCell>
        <mxCell id="U962CbWCgU4uKYsuo5xB-199" value="88" style="rounded=0;whiteSpace=wrap;html=1;fillColor=#dae8fc;strokeColor=#6c8ebf;" vertex="1" parent="1">
          <mxGeometry x="1400" y="240" width="40" height="40" as="geometry" />
        </mxCell>
        <mxCell id="U962CbWCgU4uKYsuo5xB-200" value="18" style="rounded=0;whiteSpace=wrap;html=1;fillColor=#dae8fc;strokeColor=#6c8ebf;" vertex="1" parent="1">
          <mxGeometry x="1440" y="240" width="40" height="40" as="geometry" />
        </mxCell>
        <mxCell id="U962CbWCgU4uKYsuo5xB-201" value="343" style="rounded=0;whiteSpace=wrap;html=1;fillColor=#dae8fc;strokeColor=#6c8ebf;" vertex="1" parent="1">
          <mxGeometry x="1480" y="240" width="40" height="40" as="geometry" />
        </mxCell>
        <mxCell id="U962CbWCgU4uKYsuo5xB-202" value="16" style="rounded=0;whiteSpace=wrap;html=1;fillColor=#dae8fc;strokeColor=#6c8ebf;" vertex="1" parent="1">
          <mxGeometry x="1520" y="240" width="40" height="40" as="geometry" />
        </mxCell>
        <mxCell id="U962CbWCgU4uKYsuo5xB-203" value="100" style="rounded=0;whiteSpace=wrap;html=1;fillColor=#dae8fc;strokeColor=#6c8ebf;" vertex="1" parent="1">
          <mxGeometry x="1560" y="240" width="40" height="40" as="geometry" />
        </mxCell>
        <mxCell id="U962CbWCgU4uKYsuo5xB-204" value="16" style="rounded=0;whiteSpace=wrap;html=1;fillColor=#d5e8d4;strokeColor=#82b366;" vertex="1" parent="1">
          <mxGeometry x="1240" y="240" width="40" height="40" as="geometry" />
        </mxCell>
        <mxCell id="U962CbWCgU4uKYsuo5xB-205" style="edgeStyle=orthogonalEdgeStyle;rounded=0;orthogonalLoop=1;jettySize=auto;html=1;exitX=0.5;exitY=1;exitDx=0;exitDy=0;entryX=0.5;entryY=1;entryDx=0;entryDy=0;startArrow=classic;startFill=1;" edge="1" parent="1" source="U962CbWCgU4uKYsuo5xB-202" target="U962CbWCgU4uKYsuo5xB-199">
          <mxGeometry relative="1" as="geometry">
            <mxPoint x="1560" y="320" as="sourcePoint" />
            <mxPoint x="1360" y="320" as="targetPoint" />
          </mxGeometry>
        </mxCell>
        <mxCell id="U962CbWCgU4uKYsuo5xB-206" value="0" style="rounded=0;whiteSpace=wrap;html=1;" vertex="1" parent="1">
          <mxGeometry x="1320" y="320" width="40" height="40" as="geometry" />
        </mxCell>
        <mxCell id="U962CbWCgU4uKYsuo5xB-207" value="8&lt;br&gt;" style="rounded=0;whiteSpace=wrap;html=1;" vertex="1" parent="1">
          <mxGeometry x="1360" y="320" width="40" height="40" as="geometry" />
        </mxCell>
        <mxCell id="U962CbWCgU4uKYsuo5xB-208" value="16" style="rounded=0;whiteSpace=wrap;html=1;" vertex="1" parent="1">
          <mxGeometry x="1400" y="320" width="40" height="40" as="geometry" />
        </mxCell>
        <mxCell id="U962CbWCgU4uKYsuo5xB-209" value="18" style="rounded=0;whiteSpace=wrap;html=1;fillColor=#dae8fc;strokeColor=#6c8ebf;" vertex="1" parent="1">
          <mxGeometry x="1440" y="320" width="40" height="40" as="geometry" />
        </mxCell>
        <mxCell id="U962CbWCgU4uKYsuo5xB-210" value="343" style="rounded=0;whiteSpace=wrap;html=1;fillColor=#dae8fc;strokeColor=#6c8ebf;" vertex="1" parent="1">
          <mxGeometry x="1480" y="320" width="40" height="40" as="geometry" />
        </mxCell>
        <mxCell id="U962CbWCgU4uKYsuo5xB-211" value="88" style="rounded=0;whiteSpace=wrap;html=1;fillColor=#dae8fc;strokeColor=#6c8ebf;" vertex="1" parent="1">
          <mxGeometry x="1520" y="320" width="40" height="40" as="geometry" />
        </mxCell>
        <mxCell id="U962CbWCgU4uKYsuo5xB-212" value="100" style="rounded=0;whiteSpace=wrap;html=1;fillColor=#dae8fc;strokeColor=#6c8ebf;" vertex="1" parent="1">
          <mxGeometry x="1560" y="320" width="40" height="40" as="geometry" />
        </mxCell>
        <mxCell id="U962CbWCgU4uKYsuo5xB-213" value="18" style="rounded=0;whiteSpace=wrap;html=1;fillColor=#d5e8d4;strokeColor=#82b366;" vertex="1" parent="1">
          <mxGeometry x="1240" y="320" width="40" height="40" as="geometry" />
        </mxCell>
        <mxCell id="U962CbWCgU4uKYsuo5xB-215" value="0" style="rounded=0;whiteSpace=wrap;html=1;" vertex="1" parent="1">
          <mxGeometry x="1320" y="400" width="40" height="40" as="geometry" />
        </mxCell>
        <mxCell id="U962CbWCgU4uKYsuo5xB-216" value="8&lt;br&gt;" style="rounded=0;whiteSpace=wrap;html=1;" vertex="1" parent="1">
          <mxGeometry x="1360" y="400" width="40" height="40" as="geometry" />
        </mxCell>
        <mxCell id="U962CbWCgU4uKYsuo5xB-217" value="16" style="rounded=0;whiteSpace=wrap;html=1;" vertex="1" parent="1">
          <mxGeometry x="1400" y="400" width="40" height="40" as="geometry" />
        </mxCell>
        <mxCell id="U962CbWCgU4uKYsuo5xB-218" value="18" style="rounded=0;whiteSpace=wrap;html=1;" vertex="1" parent="1">
          <mxGeometry x="1440" y="400" width="40" height="40" as="geometry" />
        </mxCell>
        <mxCell id="U962CbWCgU4uKYsuo5xB-219" value="343" style="rounded=0;whiteSpace=wrap;html=1;fillColor=#dae8fc;strokeColor=#6c8ebf;" vertex="1" parent="1">
          <mxGeometry x="1480" y="400" width="40" height="40" as="geometry" />
        </mxCell>
        <mxCell id="U962CbWCgU4uKYsuo5xB-223" style="edgeStyle=orthogonalEdgeStyle;rounded=0;orthogonalLoop=1;jettySize=auto;html=1;exitX=0.5;exitY=1;exitDx=0;exitDy=0;entryX=0.5;entryY=1;entryDx=0;entryDy=0;startArrow=classic;startFill=1;" edge="1" parent="1" source="U962CbWCgU4uKYsuo5xB-220" target="U962CbWCgU4uKYsuo5xB-219">
          <mxGeometry relative="1" as="geometry" />
        </mxCell>
        <mxCell id="U962CbWCgU4uKYsuo5xB-220" value="88" style="rounded=0;whiteSpace=wrap;html=1;fillColor=#dae8fc;strokeColor=#6c8ebf;" vertex="1" parent="1">
          <mxGeometry x="1520" y="400" width="40" height="40" as="geometry" />
        </mxCell>
        <mxCell id="U962CbWCgU4uKYsuo5xB-221" value="100" style="rounded=0;whiteSpace=wrap;html=1;fillColor=#dae8fc;strokeColor=#6c8ebf;" vertex="1" parent="1">
          <mxGeometry x="1560" y="400" width="40" height="40" as="geometry" />
        </mxCell>
        <mxCell id="U962CbWCgU4uKYsuo5xB-222" value="88" style="rounded=0;whiteSpace=wrap;html=1;fillColor=#d5e8d4;strokeColor=#82b366;" vertex="1" parent="1">
          <mxGeometry x="1240" y="400" width="40" height="40" as="geometry" />
        </mxCell>
        <mxCell id="U962CbWCgU4uKYsuo5xB-224" value="0" style="rounded=0;whiteSpace=wrap;html=1;" vertex="1" parent="1">
          <mxGeometry x="1320" y="480" width="40" height="40" as="geometry" />
        </mxCell>
        <mxCell id="U962CbWCgU4uKYsuo5xB-225" value="8&lt;br&gt;" style="rounded=0;whiteSpace=wrap;html=1;" vertex="1" parent="1">
          <mxGeometry x="1360" y="480" width="40" height="40" as="geometry" />
        </mxCell>
        <mxCell id="U962CbWCgU4uKYsuo5xB-226" value="16" style="rounded=0;whiteSpace=wrap;html=1;" vertex="1" parent="1">
          <mxGeometry x="1400" y="480" width="40" height="40" as="geometry" />
        </mxCell>
        <mxCell id="U962CbWCgU4uKYsuo5xB-227" value="18" style="rounded=0;whiteSpace=wrap;html=1;" vertex="1" parent="1">
          <mxGeometry x="1440" y="480" width="40" height="40" as="geometry" />
        </mxCell>
        <mxCell id="U962CbWCgU4uKYsuo5xB-228" value="88" style="rounded=0;whiteSpace=wrap;html=1;" vertex="1" parent="1">
          <mxGeometry x="1480" y="480" width="40" height="40" as="geometry" />
        </mxCell>
        <mxCell id="U962CbWCgU4uKYsuo5xB-229" style="edgeStyle=orthogonalEdgeStyle;rounded=0;orthogonalLoop=1;jettySize=auto;html=1;exitX=0.5;exitY=1;exitDx=0;exitDy=0;entryX=0.5;entryY=1;entryDx=0;entryDy=0;startArrow=classic;startFill=1;" edge="1" parent="1" source="U962CbWCgU4uKYsuo5xB-230" target="U962CbWCgU4uKYsuo5xB-231">
          <mxGeometry relative="1" as="geometry" />
        </mxCell>
        <mxCell id="U962CbWCgU4uKYsuo5xB-230" value="343" style="rounded=0;whiteSpace=wrap;html=1;fillColor=#dae8fc;strokeColor=#6c8ebf;" vertex="1" parent="1">
          <mxGeometry x="1520" y="480" width="40" height="40" as="geometry" />
        </mxCell>
        <mxCell id="U962CbWCgU4uKYsuo5xB-231" value="100" style="rounded=0;whiteSpace=wrap;html=1;fillColor=#dae8fc;strokeColor=#6c8ebf;" vertex="1" parent="1">
          <mxGeometry x="1560" y="480" width="40" height="40" as="geometry" />
        </mxCell>
        <mxCell id="U962CbWCgU4uKYsuo5xB-232" value="100" style="rounded=0;whiteSpace=wrap;html=1;fillColor=#d5e8d4;strokeColor=#82b366;" vertex="1" parent="1">
          <mxGeometry x="1240" y="480" width="40" height="40" as="geometry" />
        </mxCell>
        <mxCell id="U962CbWCgU4uKYsuo5xB-233" value="0" style="rounded=0;whiteSpace=wrap;html=1;" vertex="1" parent="1">
          <mxGeometry x="1320" y="560" width="40" height="40" as="geometry" />
        </mxCell>
        <mxCell id="U962CbWCgU4uKYsuo5xB-234" value="8&lt;br&gt;" style="rounded=0;whiteSpace=wrap;html=1;" vertex="1" parent="1">
          <mxGeometry x="1360" y="560" width="40" height="40" as="geometry" />
        </mxCell>
        <mxCell id="U962CbWCgU4uKYsuo5xB-235" value="16" style="rounded=0;whiteSpace=wrap;html=1;" vertex="1" parent="1">
          <mxGeometry x="1400" y="560" width="40" height="40" as="geometry" />
        </mxCell>
        <mxCell id="U962CbWCgU4uKYsuo5xB-236" value="18" style="rounded=0;whiteSpace=wrap;html=1;" vertex="1" parent="1">
          <mxGeometry x="1440" y="560" width="40" height="40" as="geometry" />
        </mxCell>
        <mxCell id="U962CbWCgU4uKYsuo5xB-237" value="88" style="rounded=0;whiteSpace=wrap;html=1;" vertex="1" parent="1">
          <mxGeometry x="1480" y="560" width="40" height="40" as="geometry" />
        </mxCell>
        <mxCell id="U962CbWCgU4uKYsuo5xB-238" value="100" style="rounded=0;whiteSpace=wrap;html=1;" vertex="1" parent="1">
          <mxGeometry x="1520" y="560" width="40" height="40" as="geometry" />
        </mxCell>
        <mxCell id="U962CbWCgU4uKYsuo5xB-239" value="343" style="rounded=0;whiteSpace=wrap;html=1;" vertex="1" parent="1">
          <mxGeometry x="1560" y="560" width="40" height="40" as="geometry" />
        </mxCell>
        <mxCell id="U962CbWCgU4uKYsuo5xB-240" value="8" style="rounded=0;whiteSpace=wrap;html=1;fillColor=#f8cecc;strokeColor=#b85450;" vertex="1" parent="1">
          <mxGeometry x="1720" y="80" width="40" height="40" as="geometry" />
        </mxCell>
        <mxCell id="U962CbWCgU4uKYsuo5xB-249" style="edgeStyle=orthogonalEdgeStyle;rounded=0;orthogonalLoop=1;jettySize=auto;html=1;exitX=0.5;exitY=1;exitDx=0;exitDy=0;entryX=0.5;entryY=1;entryDx=0;entryDy=0;startArrow=classic;startFill=1;" edge="1" parent="1" source="U962CbWCgU4uKYsuo5xB-241" target="U962CbWCgU4uKYsuo5xB-245">
          <mxGeometry relative="1" as="geometry" />
        </mxCell>
        <mxCell id="U962CbWCgU4uKYsuo5xB-241" value="16" style="rounded=0;whiteSpace=wrap;html=1;fillColor=#dae8fc;strokeColor=#6c8ebf;" vertex="1" parent="1">
          <mxGeometry x="1760" y="80" width="40" height="40" as="geometry" />
        </mxCell>
        <mxCell id="U962CbWCgU4uKYsuo5xB-242" value="88" style="rounded=0;whiteSpace=wrap;html=1;fillColor=#dae8fc;strokeColor=#6c8ebf;" vertex="1" parent="1">
          <mxGeometry x="1800" y="80" width="40" height="40" as="geometry" />
        </mxCell>
        <mxCell id="U962CbWCgU4uKYsuo5xB-243" value="18" style="rounded=0;whiteSpace=wrap;html=1;fillColor=#dae8fc;strokeColor=#6c8ebf;" vertex="1" parent="1">
          <mxGeometry x="1840" y="80" width="40" height="40" as="geometry" />
        </mxCell>
        <mxCell id="U962CbWCgU4uKYsuo5xB-244" value="343" style="rounded=0;whiteSpace=wrap;html=1;fillColor=#dae8fc;strokeColor=#6c8ebf;" vertex="1" parent="1">
          <mxGeometry x="1880" y="80" width="40" height="40" as="geometry" />
        </mxCell>
        <mxCell id="U962CbWCgU4uKYsuo5xB-245" value="0" style="rounded=0;whiteSpace=wrap;html=1;fillColor=#dae8fc;strokeColor=#6c8ebf;" vertex="1" parent="1">
          <mxGeometry x="1920" y="80" width="40" height="40" as="geometry" />
        </mxCell>
        <mxCell id="U962CbWCgU4uKYsuo5xB-246" value="100" style="rounded=0;whiteSpace=wrap;html=1;fillColor=#dae8fc;strokeColor=#6c8ebf;" vertex="1" parent="1">
          <mxGeometry x="1960" y="80" width="40" height="40" as="geometry" />
        </mxCell>
        <mxCell id="U962CbWCgU4uKYsuo5xB-247" value="quick" style="rounded=1;whiteSpace=wrap;html=1;" vertex="1" parent="1">
          <mxGeometry x="1720" y="10" width="280" height="60" as="geometry" />
        </mxCell>
        <mxCell id="U962CbWCgU4uKYsuo5xB-250" value="8" style="rounded=0;whiteSpace=wrap;html=1;fillColor=#f8cecc;strokeColor=#b85450;" vertex="1" parent="1">
          <mxGeometry x="1720" y="160" width="40" height="40" as="geometry" />
        </mxCell>
        <mxCell id="U962CbWCgU4uKYsuo5xB-252" value="0" style="rounded=0;whiteSpace=wrap;html=1;fillColor=#dae8fc;strokeColor=#6c8ebf;" vertex="1" parent="1">
          <mxGeometry x="1760" y="160" width="40" height="40" as="geometry" />
        </mxCell>
        <mxCell id="U962CbWCgU4uKYsuo5xB-253" value="88" style="rounded=0;whiteSpace=wrap;html=1;fillColor=#dae8fc;strokeColor=#6c8ebf;" vertex="1" parent="1">
          <mxGeometry x="1800" y="160" width="40" height="40" as="geometry" />
        </mxCell>
        <mxCell id="U962CbWCgU4uKYsuo5xB-254" value="18" style="rounded=0;whiteSpace=wrap;html=1;fillColor=#dae8fc;strokeColor=#6c8ebf;" vertex="1" parent="1">
          <mxGeometry x="1840" y="160" width="40" height="40" as="geometry" />
        </mxCell>
        <mxCell id="U962CbWCgU4uKYsuo5xB-255" value="343" style="rounded=0;whiteSpace=wrap;html=1;fillColor=#dae8fc;strokeColor=#6c8ebf;" vertex="1" parent="1">
          <mxGeometry x="1880" y="160" width="40" height="40" as="geometry" />
        </mxCell>
        <mxCell id="U962CbWCgU4uKYsuo5xB-256" value="16" style="rounded=0;whiteSpace=wrap;html=1;fillColor=#dae8fc;strokeColor=#6c8ebf;" vertex="1" parent="1">
          <mxGeometry x="1920" y="160" width="40" height="40" as="geometry" />
        </mxCell>
        <mxCell id="U962CbWCgU4uKYsuo5xB-257" value="100" style="rounded=0;whiteSpace=wrap;html=1;fillColor=#dae8fc;strokeColor=#6c8ebf;" vertex="1" parent="1">
          <mxGeometry x="1960" y="160" width="40" height="40" as="geometry" />
        </mxCell>
        <mxCell id="U962CbWCgU4uKYsuo5xB-258" value="8" style="rounded=0;whiteSpace=wrap;html=1;fillColor=#f8cecc;strokeColor=#b85450;" vertex="1" parent="1">
          <mxGeometry x="1780" y="240" width="40" height="40" as="geometry" />
        </mxCell>
        <mxCell id="U962CbWCgU4uKYsuo5xB-259" value="0" style="rounded=0;whiteSpace=wrap;html=1;fillColor=#dae8fc;strokeColor=#6c8ebf;" vertex="1" parent="1">
          <mxGeometry x="1720" y="240" width="40" height="40" as="geometry" />
        </mxCell>
        <mxCell id="U962CbWCgU4uKYsuo5xB-260" value="88" style="rounded=0;whiteSpace=wrap;html=1;fillColor=#dae8fc;strokeColor=#6c8ebf;" vertex="1" parent="1">
          <mxGeometry x="1840" y="240" width="40" height="40" as="geometry" />
        </mxCell>
        <mxCell id="U962CbWCgU4uKYsuo5xB-261" value="18" style="rounded=0;whiteSpace=wrap;html=1;fillColor=#dae8fc;strokeColor=#6c8ebf;" vertex="1" parent="1">
          <mxGeometry x="1880" y="240" width="40" height="40" as="geometry" />
        </mxCell>
        <mxCell id="U962CbWCgU4uKYsuo5xB-262" value="343" style="rounded=0;whiteSpace=wrap;html=1;fillColor=#dae8fc;strokeColor=#6c8ebf;" vertex="1" parent="1">
          <mxGeometry x="1920" y="240" width="40" height="40" as="geometry" />
        </mxCell>
        <mxCell id="U962CbWCgU4uKYsuo5xB-263" value="16" style="rounded=0;whiteSpace=wrap;html=1;fillColor=#dae8fc;strokeColor=#6c8ebf;" vertex="1" parent="1">
          <mxGeometry x="1960" y="240" width="40" height="40" as="geometry" />
        </mxCell>
        <mxCell id="U962CbWCgU4uKYsuo5xB-264" value="100" style="rounded=0;whiteSpace=wrap;html=1;fillColor=#dae8fc;strokeColor=#6c8ebf;" vertex="1" parent="1">
          <mxGeometry x="2000" y="240" width="40" height="40" as="geometry" />
        </mxCell>
        <mxCell id="U962CbWCgU4uKYsuo5xB-265" value="8" style="rounded=0;whiteSpace=wrap;html=1;" vertex="1" parent="1">
          <mxGeometry x="1780" y="320" width="40" height="40" as="geometry" />
        </mxCell>
        <mxCell id="U962CbWCgU4uKYsuo5xB-266" value="0" style="rounded=0;whiteSpace=wrap;html=1;fillColor=#dae8fc;strokeColor=#6c8ebf;" vertex="1" parent="1">
          <mxGeometry x="1720" y="320" width="40" height="40" as="geometry" />
        </mxCell>
        <mxCell id="U962CbWCgU4uKYsuo5xB-267" value="88" style="rounded=0;whiteSpace=wrap;html=1;fillColor=#f8cecc;strokeColor=#b85450;" vertex="1" parent="1">
          <mxGeometry x="1840" y="320" width="40" height="40" as="geometry" />
        </mxCell>
        <mxCell id="U962CbWCgU4uKYsuo5xB-268" value="18" style="rounded=0;whiteSpace=wrap;html=1;fillColor=#dae8fc;strokeColor=#6c8ebf;" vertex="1" parent="1">
          <mxGeometry x="1880" y="320" width="40" height="40" as="geometry" />
        </mxCell>
        <mxCell id="U962CbWCgU4uKYsuo5xB-269" value="343" style="rounded=0;whiteSpace=wrap;html=1;fillColor=#dae8fc;strokeColor=#6c8ebf;" vertex="1" parent="1">
          <mxGeometry x="1920" y="320" width="40" height="40" as="geometry" />
        </mxCell>
        <mxCell id="U962CbWCgU4uKYsuo5xB-272" style="edgeStyle=orthogonalEdgeStyle;rounded=0;orthogonalLoop=1;jettySize=auto;html=1;exitX=0.5;exitY=1;exitDx=0;exitDy=0;entryX=0.5;entryY=1;entryDx=0;entryDy=0;startArrow=classic;startFill=1;" edge="1" parent="1" source="U962CbWCgU4uKYsuo5xB-270" target="U962CbWCgU4uKYsuo5xB-269">
          <mxGeometry relative="1" as="geometry" />
        </mxCell>
        <mxCell id="U962CbWCgU4uKYsuo5xB-270" value="16" style="rounded=0;whiteSpace=wrap;html=1;fillColor=#dae8fc;strokeColor=#6c8ebf;" vertex="1" parent="1">
          <mxGeometry x="1960" y="320" width="40" height="40" as="geometry" />
        </mxCell>
        <mxCell id="U962CbWCgU4uKYsuo5xB-271" value="100" style="rounded=0;whiteSpace=wrap;html=1;fillColor=#dae8fc;strokeColor=#6c8ebf;" vertex="1" parent="1">
          <mxGeometry x="2000" y="320" width="40" height="40" as="geometry" />
        </mxCell>
        <mxCell id="U962CbWCgU4uKYsuo5xB-273" value="8" style="rounded=0;whiteSpace=wrap;html=1;" vertex="1" parent="1">
          <mxGeometry x="1780" y="400" width="40" height="40" as="geometry" />
        </mxCell>
        <mxCell id="U962CbWCgU4uKYsuo5xB-274" value="0" style="rounded=0;whiteSpace=wrap;html=1;fillColor=#dae8fc;strokeColor=#6c8ebf;" vertex="1" parent="1">
          <mxGeometry x="1720" y="400" width="40" height="40" as="geometry" />
        </mxCell>
        <mxCell id="U962CbWCgU4uKYsuo5xB-275" value="88" style="rounded=0;whiteSpace=wrap;html=1;fillColor=#f8cecc;strokeColor=#b85450;" vertex="1" parent="1">
          <mxGeometry x="1840" y="400" width="40" height="40" as="geometry" />
        </mxCell>
        <mxCell id="U962CbWCgU4uKYsuo5xB-276" value="18" style="rounded=0;whiteSpace=wrap;html=1;fillColor=#dae8fc;strokeColor=#6c8ebf;" vertex="1" parent="1">
          <mxGeometry x="1880" y="400" width="40" height="40" as="geometry" />
        </mxCell>
        <mxCell id="U962CbWCgU4uKYsuo5xB-277" value="16" style="rounded=0;whiteSpace=wrap;html=1;fillColor=#dae8fc;strokeColor=#6c8ebf;" vertex="1" parent="1">
          <mxGeometry x="1920" y="400" width="40" height="40" as="geometry" />
        </mxCell>
        <mxCell id="U962CbWCgU4uKYsuo5xB-279" value="343" style="rounded=0;whiteSpace=wrap;html=1;fillColor=#dae8fc;strokeColor=#6c8ebf;" vertex="1" parent="1">
          <mxGeometry x="1960" y="400" width="40" height="40" as="geometry" />
        </mxCell>
        <mxCell id="U962CbWCgU4uKYsuo5xB-280" value="100" style="rounded=0;whiteSpace=wrap;html=1;fillColor=#dae8fc;strokeColor=#6c8ebf;" vertex="1" parent="1">
          <mxGeometry x="2000" y="400" width="40" height="40" as="geometry" />
        </mxCell>
        <mxCell id="U962CbWCgU4uKYsuo5xB-281" value="8" style="rounded=0;whiteSpace=wrap;html=1;" vertex="1" parent="1">
          <mxGeometry x="1780" y="480" width="40" height="40" as="geometry" />
        </mxCell>
        <mxCell id="U962CbWCgU4uKYsuo5xB-282" value="0" style="rounded=0;whiteSpace=wrap;html=1;fillColor=#dae8fc;strokeColor=#6c8ebf;" vertex="1" parent="1">
          <mxGeometry x="1720" y="480" width="40" height="40" as="geometry" />
        </mxCell>
        <mxCell id="U962CbWCgU4uKYsuo5xB-283" value="88" style="rounded=0;whiteSpace=wrap;html=1;fillColor=#f8cecc;strokeColor=#b85450;" vertex="1" parent="1">
          <mxGeometry x="1940" y="480" width="40" height="40" as="geometry" />
        </mxCell>
        <mxCell id="U962CbWCgU4uKYsuo5xB-284" value="18" style="rounded=0;whiteSpace=wrap;html=1;fillColor=#dae8fc;strokeColor=#6c8ebf;" vertex="1" parent="1">
          <mxGeometry x="1840" y="480" width="40" height="40" as="geometry" />
        </mxCell>
        <mxCell id="U962CbWCgU4uKYsuo5xB-285" value="16" style="rounded=0;whiteSpace=wrap;html=1;fillColor=#dae8fc;strokeColor=#6c8ebf;" vertex="1" parent="1">
          <mxGeometry x="1880" y="480" width="40" height="40" as="geometry" />
        </mxCell>
        <mxCell id="U962CbWCgU4uKYsuo5xB-286" value="343" style="rounded=0;whiteSpace=wrap;html=1;fillColor=#dae8fc;strokeColor=#6c8ebf;" vertex="1" parent="1">
          <mxGeometry x="2000" y="480" width="40" height="40" as="geometry" />
        </mxCell>
        <mxCell id="U962CbWCgU4uKYsuo5xB-287" value="100" style="rounded=0;whiteSpace=wrap;html=1;fillColor=#dae8fc;strokeColor=#6c8ebf;" vertex="1" parent="1">
          <mxGeometry x="2040" y="480" width="40" height="40" as="geometry" />
        </mxCell>
      </root>
    </mxGraphModel>
  </diagram>
</mxfile>
